<svg width="32" height="32" viewBox="0 0 32 32" version="1.1" xmlns="http://www.w3.org/2000/svg" xmlns:xlink="http://www.w3.org/1999/xlink">
<title>add-qr-code-black-2</title>
<desc>Created using Figma</desc>
<g id="Canvas" transform="translate(-249 201)">
<clipPath id="clip-0" clip-rule="evenodd">
<path d="M 249 -201L 281 -201L 281 -169L 249 -169L 249 -201Z" fill="#FFFFFF"/>
</clipPath>
<g id="add-qr-code-black-2" clip-path="url(#clip-0)">
<g id="Group">
<g id="Subtract">
<use xlink:href="#path0_fill" transform="translate(252 -198)" fill="#1E2227"/>
</g>
<g id="+">
<g id="Vector">
<use xlink:href="#path1_stroke" transform="translate(262 -188)" fill="#FFC125"/>
</g>
<g id="Ellipse">
<mask id="mask0_outline_ins">
<use xlink:href="#path2_fill" fill="white" transform="translate(257 -193)"/>
</mask>
<g mask="url(#mask0_outline_ins)">
<use xlink:href="#path3_stroke_2x" transform="translate(257 -193)" fill="#FFC125"/>
</g>
</g>
</g>
</g>
</g>
</g>
<defs>
<path id="path0_fill" fill-rule="evenodd" d="M 2 2L 10 2L 10 3.45779C 10.6412 3.25639 11.3103 3.11786 12 3.04938L 12 2L 12 0L 10 0L 2 0L 0 0L 0 2L 0 10L 0 12L 2 12L 3.04938 12C 3.11786 11.3103 3.25641 10.6412 3.45781 10L 2 10L 2 2ZM 9 3.83209L 9 3L 7 3L 5 3L 3 3L 3 5L 3 7L 3 9L 3.83209 9C 4.14423 8.28561 4.53738 7.61475 5 6.99902L 5 5L 6.99902 5C 7.61475 4.5374 8.28561 4.14423 9 3.83209ZM 3.04938 14L 2 14L 0 14L 0 16L 2 16L 3.45781 16C 3.25641 15.3588 3.11786 14.6897 3.04938 14ZM 3.83209 17L 2 17L 0 17L 0 19L 0 24L 0 26L 2 26L 7 26L 9 26L 9 24L 9 22.1679C 8.28598 21.8559 7.61545 21.463 7 21.0007L 7 24L 2 24L 2 19L 4.99927 19C 4.53699 18.3845 4.14404 17.714 3.83209 17ZM 5.85855 20L 5 20L 4 20L 3 20L 3 21L 3 22L 3 23L 4 23L 5 23L 6 23L 6 22L 6 21L 6 20.1414C 5.95239 20.0948 5.90521 20.0476 5.85855 20ZM 10 22.5422L 10 24L 10 26L 12 26L 12 24L 12 22.9506C 11.3103 22.8821 10.6412 22.7436 10 22.5422ZM 14 22.9506L 14 24L 14 26L 16 26L 24 26L 26 26L 26 24L 26 16L 26 14L 24 14L 22.9506 14C 22.8821 14.6897 22.7436 15.3588 22.5422 16L 24 16L 24 24L 16 24L 16 22.5422C 15.3588 22.7436 14.6897 22.8821 14 22.9506ZM 17 22.1679L 17 23L 19 23L 21 23L 23 23L 23 21L 23 19L 23 17L 22.1679 17C 21.8558 17.7144 21.4626 18.3853 21 19.001L 21 21L 19.001 21C 18.3853 21.4626 17.7144 21.8558 17 22.1679ZM 22.9506 12L 24 12L 26 12L 26 10L 26 2L 26 0L 24 0L 16 0L 14 0L 14 2L 14 3.04938C 14.6897 3.11786 15.3588 3.25639 16 3.45779L 16 2L 24 2L 24 10L 22.5422 10C 22.7436 10.6412 22.8821 11.3103 22.9506 12ZM 22.1679 9L 23 9L 23 7L 23 5L 23 3L 21 3L 19 3L 17 3L 17 3.83209C 17.7144 4.14423 18.3853 4.5374 19.001 5L 21 5L 21 6.99902C 21.4626 7.61475 21.8558 8.28561 22.1679 9Z"/>
<path id="path1_stroke" d="M 4 0C 4 -0.552285 3.55228 -1 3 -1C 2.44772 -1 2 -0.552285 2 0L 4 0ZM 2 6C 2 6.55228 2.44772 7 3 7C 3.55228 7 4 6.55228 4 6L 2 6ZM 0 2C -0.552285 2 -1 2.44772 -1 3C -1 3.55228 -0.552285 4 0 4L 0 2ZM 6 4C 6.55228 4 7 3.55228 7 3C 7 2.44772 6.55228 2 6 2L 6 4ZM 4 3L 4 0L 2 0L 2 3L 4 3ZM 2 0L 2 6L 4 6L 4 0L 2 0ZM 4 6L 4 3L 2 3L 2 6L 4 6ZM 0 4L 6 4L 6 2L 0 2L 0 4Z"/>
<path id="path2_fill" d="M 16 8C 16 12.4183 12.4183 16 8 16C 3.58172 16 0 12.4183 0 8C 0 3.58172 3.58172 0 8 0C 12.4183 0 16 3.58172 16 8Z"/>
<path id="path3_stroke_2x" d="M 14 8C 14 11.3137 11.3137 14 8 14L 8 18C 13.5228 18 18 13.5228 18 8L 14 8ZM 8 14C 4.68629 14 2 11.3137 2 8L -2 8C -2 13.5228 2.47715 18 8 18L 8 14ZM 2 8C 2 4.68629 4.68629 2 8 2L 8 -2C 2.47715 -2 -2 2.47715 -2 8L 2 8ZM 8 2C 11.3137 2 14 4.68629 14 8L 18 8C 18 2.47715 13.5228 -2 8 -2L 8 2Z"/>
</defs>
</svg>
