<svg width="32" height="32" viewBox="0 0 32 32" version="1.1" xmlns="http://www.w3.org/2000/svg" xmlns:xlink="http://www.w3.org/1999/xlink">
<title>add-qr-code-white</title>
<desc>Created using Figma</desc>
<g id="Canvas" transform="translate(-249 46)">
<clipPath id="clip-0" clip-rule="evenodd">
<path d="M 249 -46L 281 -46L 281 -14L 249 -14L 249 -46Z" fill="#FFFFFF"/>
</clipPath>
<g id="add-qr-code-white" clip-path="url(#clip-0)">
<g id="Group">
<g id="Subtract">
<use xlink:href="#path0_fill" transform="translate(257 -39)" fill="#FBFBFB"/>
</g>
</g>
<g id="+">
<g id="Vector">
<use xlink:href="#path1_stroke" transform="translate(258 -29)" fill="#FFC125"/>
</g>
<g id="Ellipse">
<mask id="mask0_outline_ins">
<use xlink:href="#path2_fill" fill="white" transform="translate(253 -34)"/>
</mask>
<g mask="url(#mask0_outline_ins)">
<use xlink:href="#path3_stroke_2x" transform="translate(253 -34)" fill="#FFC125"/>
</g>
</g>
</g>
</g>
</g>
<defs>
<path id="path0_fill" fill-rule="evenodd" d="M 1 1L 7 1L 7 4.51212C 7.34338 4.63348 7.67719 4.7751 8 4.93552L 8 1L 8 0L 7 0L 1 0L 0 0L 0 1L 0 4.93552C 0.322815 4.7751 0.656616 4.63348 1 4.51212L 1 1ZM 6 4.22301L 6 3L 6 2L 5 2L 3 2L 2 2L 2 3L 2 4.22301C 2.32693 4.14883 2.66061 4.09245 3 4.05493L 3 3L 5 3L 5 4.05493C 5.33939 4.09245 5.67307 4.14883 6 4.22301ZM 12.0645 17L 16 17L 17 17L 17 16L 17 10L 17 9L 16 9L 12.0645 9C 12.2249 9.32281 12.3665 9.65662 12.4879 10L 16 10L 16 16L 12.4879 16C 12.3665 16.3434 12.2249 16.6772 12.0645 17ZM 12.777 15L 14 15L 15 15L 15 14L 15 12L 15 11L 14 11L 12.777 11C 12.8512 11.3269 12.9076 11.6606 12.9451 12L 14 12L 14 14L 12.9451 14C 12.9076 14.3394 12.8512 14.6731 12.777 15ZM 11.4844 8L 16 8L 17 8L 17 7L 17 1L 17 0L 16 0L 10 0L 9 0L 9 1L 9 5.51555C 9.35162 5.75092 9.68576 6.01043 10 6.29169L 10 1L 16 1L 16 7L 10.7083 7C 10.9896 7.31424 11.2491 7.64837 11.4844 8ZM 12 3L 14 3L 14 5L 12 5L 12 3ZM 14 2L 15 2L 15 3L 15 5L 15 6L 14 6L 12 6L 11 6L 11 5L 11 3L 11 2L 12 2L 14 2Z"/>
<path id="path1_stroke" d="M 4 0C 4 -0.552285 3.55228 -1 3 -1C 2.44772 -1 2 -0.552285 2 0L 4 0ZM 2 6C 2 6.55228 2.44772 7 3 7C 3.55228 7 4 6.55228 4 6L 2 6ZM 0 2C -0.552285 2 -1 2.44772 -1 3C -1 3.55228 -0.552285 4 0 4L 0 2ZM 6 4C 6.55228 4 7 3.55228 7 3C 7 2.44772 6.55228 2 6 2L 6 4ZM 4 3L 4 0L 2 0L 2 3L 4 3ZM 2 0L 2 6L 4 6L 4 0L 2 0ZM 4 6L 4 3L 2 3L 2 6L 4 6ZM 0 4L 6 4L 6 2L 0 2L 0 4Z"/>
<path id="path2_fill" d="M 16 8C 16 12.4183 12.4183 16 8 16C 3.58172 16 0 12.4183 0 8C 0 3.58172 3.58172 0 8 0C 12.4183 0 16 3.58172 16 8Z"/>
<path id="path3_stroke_2x" d="M 14 8C 14 11.3137 11.3137 14 8 14L 8 18C 13.5228 18 18 13.5228 18 8L 14 8ZM 8 14C 4.68629 14 2 11.3137 2 8L -2 8C -2 13.5228 2.47715 18 8 18L 8 14ZM 2 8C 2 4.68629 4.68629 2 8 2L 8 -2C 2.47715 -2 -2 2.47715 -2 8L 2 8ZM 8 2C 11.3137 2 14 4.68629 14 8L 18 8C 18 2.47715 13.5228 -2 8 -2L 8 2Z"/>
</defs>
</svg>
