<svg width="32" height="32" viewBox="0 0 32 32" version="1.1" xmlns="http://www.w3.org/2000/svg" xmlns:xlink="http://www.w3.org/1999/xlink">
<title>copy-black</title>
<desc>Created using Figma</desc>
<g id="Canvas" transform="translate(510 88)">
<clipPath id="clip-0" clip-rule="evenodd">
<path d="M -510 -88L -478 -88L -478 -56L -510 -56L -510 -88Z" fill="#FFFFFF"/>
</clipPath>
<g id="copy-black" clip-path="url(#clip-0)">
<g id="copy">
<g id="bottom">
<use xlink:href="#path0_fill" transform="translate(-505 -77)"/>
</g>
<g id="top">
<use xlink:href="#path1_fill" transform="translate(-500 -83)" fill="#FFC125"/>
</g>
</g>
</g>
</g>
<defs>
<path id="path0_fill" fill-rule="evenodd" d="M 4 0C 1.79086 0 0 1.79086 0 4L 0 12C 0 14.2091 1.79086 16 4 16L 12 16C 14.2091 16 16 14.2091 16 12L 14 12C 14 13.1046 13.1046 14 12 14L 4 14C 2.89543 14 2 13.1046 2 12L 2 4C 2 2.89543 2.89543 2 4 2L 4 0Z"/>
<path id="path1_fill" fill-rule="evenodd" d="M 13 2L 4 2C 2.89543 2 2 2.89543 2 4L 2 13C 2 14.1046 2.89543 15 4 15L 13 15C 14.1046 15 15 14.1046 15 13L 15 4C 15 2.89543 14.1046 2 13 2ZM 4 0C 1.79086 0 0 1.79086 0 4L 0 13C 0 15.2091 1.79086 17 4 17L 13 17C 15.2091 17 17 15.2091 17 13L 17 4C 17 1.79086 15.2091 0 13 0L 4 0Z"/>
</defs>
</svg>
