<svg width="32" height="32" viewBox="0 0 32 32" version="1.1" xmlns="http://www.w3.org/2000/svg" xmlns:xlink="http://www.w3.org/1999/xlink">
<title>lock-white</title>
<desc>Created using Figma</desc>
<g id="Canvas" transform="translate(-98 46)">
<clipPath id="clip-0" clip-rule="evenodd">
<path d="M 98 -46L 130 -46L 130 -14L 98 -14L 98 -46Z" fill="#FFFFFF"/>
</clipPath>
<g id="lock-white" clip-path="url(#clip-0)">
<g id="Rectangle">
<mask id="mask0_outline_ins">
<use xlink:href="#path0_fill" fill="white" transform="translate(107 -33)"/>
</mask>
<g mask="url(#mask0_outline_ins)">
<use xlink:href="#path1_stroke_2x" transform="translate(107 -33)" fill="#FBFBFB"/>
</g>
</g>
<g id="Rectangle">
<use xlink:href="#path2_stroke" transform="translate(110 -38)" fill="#FBFBFB"/>
</g>
</g>
</g>
<defs>
<path id="path0_fill" d="M 0 4C 0 1.79086 1.79086 0 4 0L 10 0C 12.2091 0 14 1.79086 14 4L 14 7C 14 9.20914 12.2091 11 10 11L 4 11C 1.79086 11 0 9.20914 0 7L 0 4Z"/>
<path id="path1_stroke_2x" d="M 4 2L 10 2L 10 -2L 4 -2L 4 2ZM 12 4L 12 7L 16 7L 16 4L 12 4ZM 10 9L 4 9L 4 13L 10 13L 10 9ZM 2 7L 2 4L -2 4L -2 7L 2 7ZM 4 -2C 0.686292 -2 -2 0.686292 -2 4L 2 4C 2 2.89543 2.89543 2 4 2L 4 -2ZM 10 2C 11.1046 2 12 2.89543 12 4L 16 4C 16 0.686292 13.3137 -2 10 -2L 10 2ZM 12 7C 12 8.10457 11.1046 9 10 9L 10 13C 13.3137 13 16 10.3137 16 7L 12 7ZM 4 9C 2.89543 9 2 8.10457 2 7L -2 7C -2 10.3137 0.686292 13 4 13L 4 9Z"/>
<path id="path2_stroke" d="M 7 4L 7 7L 9 7L 9 4L 7 4ZM 1 7L 1 4L -1 4L -1 7L 1 7ZM 4 -1C 1.23858 -1 -1 1.23858 -1 4L 1 4C 1 2.34315 2.34315 1 4 1L 4 -1ZM 4 1C 5.65685 1 7 2.34315 7 4L 9 4C 9 1.23858 6.76142 -1 4 -1L 4 1Z"/>
</defs>
</svg>
