<svg width="32" height="32" viewBox="0 0 32 32" version="1.1" xmlns="http://www.w3.org/2000/svg" xmlns:xlink="http://www.w3.org/1999/xlink">
<title>minus-red</title>
<desc>Created using Figma</desc>
<g id="Canvas" transform="translate(-8 180)">
<clipPath id="clip-0" clip-rule="evenodd">
<path d="M 8 -180L 40 -180L 40 -148L 8 -148L 8 -180Z" fill="#FFFFFF"/>
</clipPath>
<g id="minus-red" clip-path="url(#clip-0)">
<g id="i">
<g id="Vector">
<use xlink:href="#path0_stroke" transform="translate(21 -164)" fill="#FF004E"/>
</g>
<g id="Ellipse">
<mask id="mask0_outline_ins">
<use xlink:href="#path1_fill" fill="white" transform="translate(16 -172)"/>
</mask>
<g mask="url(#mask0_outline_ins)">
<use xlink:href="#path2_stroke_2x" transform="translate(16 -172)" fill="#FF004E"/>
</g>
</g>
</g>
</g>
</g>
<defs>
<path id="path0_stroke" d="M 0 -1C -0.552285 -1 -1 -0.552285 -1 0C -1 0.552285 -0.552285 1 0 1L 0 -1ZM 6 1C 6.55228 1 7 0.552285 7 0C 7 -0.552285 6.55228 -1 6 -1L 6 1ZM 0 1L 6 1L 6 -1L 0 -1L 0 1Z"/>
<path id="path1_fill" d="M 16 8C 16 12.4183 12.4183 16 8 16C 3.58172 16 0 12.4183 0 8C 0 3.58172 3.58172 0 8 0C 12.4183 0 16 3.58172 16 8Z"/>
<path id="path2_stroke_2x" d="M 14 8C 14 11.3137 11.3137 14 8 14L 8 18C 13.5228 18 18 13.5228 18 8L 14 8ZM 8 14C 4.68629 14 2 11.3137 2 8L -2 8C -2 13.5228 2.47715 18 8 18L 8 14ZM 2 8C 2 4.68629 4.68629 2 8 2L 8 -2C 2.47715 -2 -2 2.47715 -2 8L 2 8ZM 8 2C 11.3137 2 14 4.68629 14 8L 18 8C 18 2.47715 13.5228 -2 8 -2L 8 2Z"/>
</defs>
</svg>
