<svg width="32" height="32" viewBox="0 0 32 32" version="1.1" xmlns="http://www.w3.org/2000/svg" xmlns:xlink="http://www.w3.org/1999/xlink">
<title>time</title>
<desc>Created using Figma</desc>
<g id="Canvas" transform="translate(34 220)">
<clipPath id="clip-0" clip-rule="evenodd">
<path d="M -34 -220L -2 -220L -2 -188L -34 -188L -34 -220Z" fill="#FFFFFF"/>
</clipPath>
<g id="time" clip-path="url(#clip-0)">
<g id="+">
<g id="Vector">
<use xlink:href="#path0_stroke" transform="translate(-18 -208)"/>
</g>
<g id="Ellipse">
<mask id="mask0_outline_ins">
<use xlink:href="#path1_fill" fill="white" transform="translate(-26 -212)"/>
</mask>
<g mask="url(#mask0_outline_ins)">
<use xlink:href="#path2_stroke_2x" transform="translate(-26 -212)"/>
</g>
</g>
</g>
</g>
</g>
<defs>
<path id="path0_stroke" d="M 0 4L -1 4C -1 4.55228 -0.552285 5 2.22045e-16 5L 0 4ZM 1 0C 1 -0.552285 0.552285 -1 0 -1C -0.552285 -1 -1 -0.552285 -1 0L 1 0ZM 3 5C 3.55228 5 4 4.55228 4 4C 4 3.44772 3.55228 3 3 3L 3 5ZM 1 4L 1 0L -1 0L -1 4L 1 4ZM 3 3C 2.41421 3 1.66421 3 1.06066 3C 0.758883 3 0.493718 3 0.303998 3C 0.209137 3 0.133138 3 0.0808535 3C 0.0547113 3 0.034498 3 0.0208201 3C 0.0139812 3 0.00877618 3 0.00528088 3C 0.00353322 3 0.00221301 3 0.0013297 3C 0.000888046 3 0.000555622 3 0.00033361 3C 0.000222604 3 0.000139202 3 8.35506e-05 3C 5.57251e-05 3 3.48374e-05 3 2.09062e-05 3C 6.9749e-06 3 0 3 0 4C 0 5 6.9749e-06 5 2.09062e-05 5C 3.48374e-05 5 5.57251e-05 5 8.35506e-05 5C 0.000139202 5 0.000222604 5 0.00033361 5C 0.000555622 5 0.000888046 5 0.0013297 5C 0.00221301 5 0.00353322 5 0.00528088 5C 0.00877618 5 0.0139812 5 0.0208201 5C 0.034498 5 0.0547113 5 0.0808535 5C 0.133138 5 0.209137 5 0.303998 5C 0.493718 5 0.758883 5 1.06066 5C 1.66421 5 2.41421 5 3 5L 3 3Z"/>
<path id="path1_fill" d="M 16 8C 16 12.4183 12.4183 16 8 16C 3.58172 16 0 12.4183 0 8C 0 3.58172 3.58172 0 8 0C 12.4183 0 16 3.58172 16 8Z"/>
<path id="path2_stroke_2x" d="M 14 8C 14 11.3137 11.3137 14 8 14L 8 18C 13.5228 18 18 13.5228 18 8L 14 8ZM 8 14C 4.68629 14 2 11.3137 2 8L -2 8C -2 13.5228 2.47715 18 8 18L 8 14ZM 2 8C 2 4.68629 4.68629 2 8 2L 8 -2C 2.47715 -2 -2 2.47715 -2 8L 2 8ZM 8 2C 11.3137 2 14 4.68629 14 8L 18 8C 18 2.47715 13.5228 -2 8 -2L 8 2Z"/>
</defs>
</svg>
