<svg width="32" height="32" viewBox="0 0 32 32" version="1.1" xmlns="http://www.w3.org/2000/svg" xmlns:xlink="http://www.w3.org/1999/xlink">
<title>wallet-white</title>
<desc>Created using Figma</desc>
<g id="Canvas" transform="translate(163 252)">
<clipPath id="clip-0" clip-rule="evenodd">
<path d="M -163 -252L -131 -252L -131 -220L -163 -220L -163 -252Z" fill="#FFFFFF"/>
</clipPath>
<g id="wallet-white" clip-path="url(#clip-0)">
<g id="Rectangle 2">
<mask id="mask0_outline_ins">
<use xlink:href="#path0_fill" fill="white" transform="translate(-145 -240)"/>
</mask>
<g mask="url(#mask0_outline_ins)">
<use xlink:href="#path1_stroke_2x" transform="translate(-145 -240)" fill="#FBFBFB"/>
</g>
</g>
<g id="Rectangle (Stroke)">
<use xlink:href="#path2_fill" transform="translate(-161 -247)" fill="#FBFBFB"/>
</g>
</g>
</g>
<defs>
<path id="path0_fill" d="M 0 3C 0 1.34315 1.34315 0 3 0L 10 0C 11.1046 0 12 0.895431 12 2L 12 6C 12 7.10457 11.1046 8 10 8L 3 8C 1.34315 8 0 6.65685 0 5L 0 3Z"/>
<path id="path1_stroke_2x" d="M 3 2L 10 2L 10 -2L 3 -2L 3 2ZM 10 2L 10 6L 14 6L 14 2L 10 2ZM 10 6L 3 6L 3 10L 10 10L 10 6ZM 2 5L 2 3L -2 3L -2 5L 2 5ZM 3 -2C 0.238576 -2 -2 0.238576 -2 3L 2 3C 2 2.44772 2.44772 2 3 2L 3 -2ZM 10 2L 10 2L 14 2C 14 -0.209139 12.2091 -2 10 -2L 10 2ZM 10 6L 10 10C 12.2091 10 14 8.20914 14 6L 10 6ZM 3 6C 2.44772 6 2 5.55228 2 5L -2 5C -2 7.76142 0.238576 10 3 10L 3 6Z"/>
<path id="path2_fill" fill-rule="evenodd" d="M 24 2L 4 2C 2.89543 2 2 2.89543 2 4L 2 18C 2 19.1046 2.89543 20 4 20L 24 20C 25.1046 20 26 19.1046 26 18L 26 4C 26 2.89543 25.1046 2 24 2ZM 4 0C 1.79086 0 0 1.79086 0 4L 0 18C 0 20.2091 1.79086 22 4 22L 24 22C 26.2091 22 28 20.2091 28 18L 28 4C 28 1.79086 26.2091 0 24 0L 4 0Z"/>
</defs>
</svg>
